<svg width="46" height="47" viewBox="0 0 46 47" fill="none" xmlns="http://www.w3.org/2000/svg">
<path d="M23 27.1361C27.2281 27.1361 30.6666 23.6976 30.6666 19.4694C30.6666 15.2412 27.2281 11.8027 23 11.8027C18.7718 11.8027 15.3333 15.2412 15.3333 19.4694C15.3333 23.6976 18.7718 27.1361 23 27.1361ZM23 15.6361C25.1141 15.6361 26.8333 17.3553 26.8333 19.4694C26.8333 21.5835 25.1141 23.3027 23 23.3027C20.8859 23.3027 19.1666 21.5835 19.1666 19.4694C19.1666 17.3553 20.8859 15.6361 23 15.6361Z" fill="white"/>
<path d="M21.8884 42.1126C22.2128 42.3442 22.6014 42.4688 23.0001 42.4688C23.3987 42.4688 23.7873 42.3442 24.1117 42.1126C24.6944 41.7005 38.389 31.8124 38.3334 19.4691C38.3334 11.0147 31.4545 4.13574 23.0001 4.13574C14.5457 4.13574 7.66673 11.0147 7.66673 19.4595C7.61115 31.8124 21.3057 41.7005 21.8884 42.1126ZM23.0001 7.96908C29.3423 7.96908 34.5001 13.1268 34.5001 19.4787C34.5403 27.9848 26.0897 35.6227 23.0001 38.1278C19.9123 35.6208 11.4598 27.981 11.5001 19.4691C11.5001 13.1268 16.6578 7.96908 23.0001 7.96908Z" fill="white"/>
</svg>
