<svg width="28" height="23" viewBox="0 0 28 23" fill="none" xmlns="http://www.w3.org/2000/svg">
<g clip-path="url(#clip0_67:7936)">
<path d="M25.8125 0.904297H1.4375C0.918945 0.904297 0.5 1.32324 0.5 1.8418V20.5918C0.5 21.1104 0.918945 21.5293 1.4375 21.5293H25.8125C26.3311 21.5293 26.75 21.1104 26.75 20.5918V1.8418C26.75 1.32324 26.3311 0.904297 25.8125 0.904297ZM24.6406 4.15039V19.4199H2.60938V4.15039L1.80078 3.52051L2.95215 2.04102L4.20605 3.0166H23.0469L24.3008 2.04102L25.4521 3.52051L24.6406 4.15039ZM23.0469 3.01367L13.625 10.3379L4.20312 3.01367L2.94922 2.03809L1.79785 3.51758L2.60645 4.14746L12.6143 11.9287C12.9021 12.1523 13.2561 12.2737 13.6206 12.2737C13.9851 12.2737 14.3391 12.1523 14.627 11.9287L24.6406 4.15039L25.4492 3.52051L24.2979 2.04102L23.0469 3.01367Z" fill="#2091F9"/>
</g>
<defs>
<clipPath id="clip0_67:7936">
<rect width="27" height="22" fill="white" transform="translate(0.5 0.216797)"/>
</clipPath>
</defs>
</svg>
