<svg width="26" height="33" viewBox="0 0 26 33" fill="none" xmlns="http://www.w3.org/2000/svg">
<g clip-path="url(#clip0_67:7924)">
<path d="M12.9998 19.8835C16.4927 19.8835 19.3332 17.043 19.3332 13.5501C19.3332 10.0573 16.4927 7.2168 12.9998 7.2168C9.507 7.2168 6.6665 10.0573 6.6665 13.5501C6.6665 17.043 9.507 19.8835 12.9998 19.8835ZM12.9998 10.3835C14.7463 10.3835 16.1665 11.8037 16.1665 13.5501C16.1665 15.2965 14.7463 16.7168 12.9998 16.7168C11.2534 16.7168 9.83317 15.2965 9.83317 13.5501C9.83317 11.8037 11.2534 10.3835 12.9998 10.3835Z" fill="#2091F9"/>
<path d="M11.7487 32.256C12.0166 32.4473 12.3377 32.5502 12.667 32.5502C12.9963 32.5502 13.3173 32.4473 13.5853 32.256C14.0667 31.9155 25.3796 23.7471 25.3337 13.5505C25.3337 6.56637 19.6511 0.883789 12.667 0.883789C5.68291 0.883789 0.000322499 6.56637 0.000322499 13.5425C-0.0455942 23.7471 11.2673 31.9155 11.7487 32.256ZM12.667 4.05046C17.9062 4.05046 22.167 8.31121 22.167 13.5584C22.2002 20.5852 15.2193 26.8948 12.667 28.9642C10.1162 26.8932 3.13374 20.582 3.16699 13.5505C3.16699 8.31121 7.42774 4.05046 12.667 4.05046Z" fill="#2091F9"/>
</g>
<defs>
<clipPath id="clip0_67:7924">
<rect width="26" height="32" fill="white" transform="translate(0 0.716797)"/>
</clipPath>
</defs>
</svg>
