<svg width="46" height="46" viewBox="0 0 46 46" fill="none" xmlns="http://www.w3.org/2000/svg">
<g clip-path="url(#clip0)">
<g clip-path="url(#clip1)">
<path d="M29.1416 13.624H41.1395V17.0693H29.1416V13.624Z" fill="#0D5C63"/>
<path d="M29.1416 22.2373H41.1395V25.6826H29.1416V22.2373Z" fill="#0D5C63"/>
<path d="M29.1416 30.8506H41.1395V34.2959H29.1416V30.8506Z" fill="#0D5C63"/>
<path d="M42.7182 5.01123H3.28962C2.41846 5.01212 1.58323 5.36679 0.96723 5.9974C0.351228 6.62801 0.0047761 7.48305 0.00390625 8.37487V38.6476C0.0047761 39.5394 0.351228 40.3944 0.96723 41.0251C1.58323 41.6557 2.41846 42.0103 3.28962 42.0112H42.7182C43.5892 42.0099 44.4242 41.6551 45.0401 41.0246C45.656 40.3941 46.0026 39.5393 46.0039 38.6476V8.37487C46.003 7.48305 45.6566 6.62801 45.0406 5.9974C44.4246 5.36679 43.5894 5.01212 42.7182 5.01123ZM3.28962 8.37487H21.361V38.6476H3.28962V8.37487ZM24.6468 38.6476V8.37487H42.7182L42.7215 38.6476H24.6468Z" fill="#0D5C63"/>
</g>
</g>
<defs>
<clipPath id="clip0">
<rect width="46" height="46" fill="#0D5C63"/>
</clipPath>
<clipPath id="clip1">
<rect width="48" height="37.92" fill="#0D5C63" transform="translate(0 5)"/>
</clipPath>
</defs>
</svg>
